<svg xmlns="http://www.w3.org/2000/svg" version="1.1" xmlns:xlink="http://www.w3.org/1999/xlink" xmlns:svgjs="http://svgjs.dev/svgjs" width="1000" height="1000" viewBox="0 0 1000 1000"><rect width="1000" height="1000" fill="#ffffff"></rect><g transform="matrix(0.7,0,0,0.7,150,150.0006552448325)"><svg viewBox="0 0 280 280" data-background-color="#282634" preserveAspectRatio="xMidYMid meet" height="1000" width="1000" xmlns="http://www.w3.org/2000/svg" xmlns:xlink="http://www.w3.org/1999/xlink"><g id="tight-bounds" transform="matrix(1,0,0,1,0,-0.00021547263605725675)"><svg viewBox="0 0 280 280" height="280" width="280"><g><svg viewBox="0 0 280 280" height="280" width="280"><g><svg viewBox="0 0 280 280" height="280" width="280"><g id="textblocktransform"><svg viewBox="0 0 280 280" height="280" width="280" id="textblock"><g><svg viewBox="0 0 280 280" height="280" width="280"><g transform="matrix(1,0,0,1,90.50252531694167,90.50252531694167)"><svg viewBox="0 0 98.99494936611666 98.99494936611666" height="98.99494936611666" width="98.99494936611666"><g><svg xmlns="http://www.w3.org/2000/svg" xmlns:xlink="http://www.w3.org/1999/xlink" version="1.1" baseProfile="tiny" x="0" y="0" viewBox="0 0 100 100" xml:space="preserve" height="98.99494936611666" width="98.99494936611666" class="icon-o-0" data-fill-palette-color="accent" id="o-0"><path d="M100 52.993v-6.004H53.466v-3.947h45.905c0 0-3.666-37.641-41.991-42.47v34.642h31.661c0 0-5.333-14.49-13.331-17.821v11.992H63.546V8.566c0 0 22.161 3.165 29.327 29.313l-39.407-0.232V0h-6.005v37.611L8.058 37.379c0 0 5.331-23.317 29.826-29.812l-0.333 21.818H25.554V17.061c0 0-9.998 4.996-13.997 18.154H43.05V0.739c0 0-37.326 5.496-42.491 42.303h46.902v3.947H0v6.004h47.461v4.537H0.642c5.166 36.806 42.492 42.302 42.492 42.302V65.357H11.64c3.999 13.158 13.997 18.154 13.997 18.154V71.187h11.998l0.333 21.818C13.473 86.51 8.141 63.192 8.141 63.192l39.32-0.231v36.988h6.005V62.925l39.49-0.231c-7.165 26.147-29.327 29.313-29.327 29.313V71.187h12.165v11.991c7.998-3.33 13.33-17.819 13.33-17.819H57.463V100c38.326-4.829 41.992-42.47 41.992-42.47H53.466v-4.537H100z" fill="#000000" data-fill-palette-color="accent"></path></svg></g></svg></g><g><path d="M29.171 108.813c-0.347 1-0.792 1.405-1.337 1.216v0l-24.127-8.363c-0.392-0.136-0.643-0.322-0.753-0.559-0.114-0.245-0.103-0.56 0.03-0.946v0l2.165-6.246c1.029-2.968 2.325-5.02 3.889-6.158 1.568-1.129 3.491-1.299 5.769-0.509v0c1.55 0.537 2.721 1.361 3.513 2.472 0.794 1.104 1.222 2.426 1.284 3.964v0l0.142 0.05c0.505-0.64 1.196-1.067 2.071-1.281 0.877-0.22 2.12-0.371 3.729-0.452v0l8.334-0.364c0.277 0.018 0.463 0.044 0.559 0.077v0c0.392 0.136 0.408 0.726 0.045 1.77v0l-0.128 0.37c-0.132 0.38-0.298 0.687-0.5 0.922-0.196 0.237-0.397 0.358-0.605 0.364v0l-8.267 0.292c-1.074 0.032-1.958 0.2-2.652 0.505-0.7 0.303-1.271 0.754-1.713 1.353-0.439 0.592-0.835 1.397-1.188 2.416v0l-1.159 3.341 10.698 3.708c0.544 0.189 0.645 0.777 0.303 1.763v0zM15.453 102.07l1.695-4.889c0.305-0.88 0.375-1.756 0.209-2.628-0.163-0.879-0.522-1.652-1.078-2.319-0.555-0.667-1.232-1.139-2.029-1.416v0c-1.462-0.507-2.705-0.438-3.729 0.207-1.024 0.644-1.808 1.751-2.352 3.32v0l-1.609 4.642z" fill="#000000" data-fill-palette-color="primary"></path><path d="M38.514 86.392c-0.207 0.352-0.443 0.563-0.709 0.633-0.257 0.067-0.558-0.001-0.905-0.205v0l-21.694-12.733c-0.358-0.21-0.568-0.442-0.629-0.695-0.063-0.262 0.008-0.57 0.215-0.922v0l6.941-11.826c0.142-0.243 0.322-0.37 0.539-0.383 0.215-0.022 0.507 0.076 0.877 0.293v0l0.554 0.326c0.341 0.2 0.563 0.404 0.666 0.612 0.106 0.202 0.089 0.425-0.054 0.667v0l-5.786 9.86 7.719 4.53 5.192-8.846c0.142-0.243 0.327-0.371 0.552-0.386 0.229-0.006 0.522 0.097 0.88 0.307v0l0.512 0.3c0.358 0.21 0.585 0.413 0.679 0.609 0.097 0.205 0.075 0.428-0.067 0.671v0l-5.192 8.845 8.291 4.866 5.807-9.894c0.142-0.243 0.324-0.373 0.544-0.391 0.223-0.009 0.513 0.092 0.871 0.302v0l0.546 0.32c0.347 0.203 0.57 0.405 0.671 0.604 0.103 0.208 0.083 0.433-0.059 0.676v0z" fill="#000000" data-fill-palette-color="primary"></path><path d="M51.043 68.297c-0.277 0.3-0.553 0.456-0.827 0.467-0.265 0.011-0.545-0.12-0.841-0.392v0l-18.497-17.048c-0.305-0.281-0.461-0.552-0.467-0.813-0.006-0.27 0.129-0.555 0.406-0.855v0l5.379-5.836c2.501-2.713 5.303-4.143 8.406-4.288 3.103-0.145 6.415 1.404 9.936 4.649v0c3.546 3.268 5.37 6.452 5.473 9.553 0.108 3.105-1.089 6.014-3.59 8.727v0zM50.394 64.598l3.656-3.967c1.797-1.95 2.607-4.109 2.43-6.476-0.172-2.363-1.63-4.808-4.372-7.337v0c-1.842-1.697-3.61-2.808-5.305-3.331-1.699-0.518-3.266-0.537-4.701-0.057-1.431 0.485-2.724 1.355-3.882 2.611v0l-3.656 3.967z" fill="#000000" data-fill-palette-color="primary"></path><path d="M75.114 46.791c-1.19 0.823-2.387 1.459-3.59 1.908-1.202 0.44-2.239 0.689-3.112 0.747-0.867 0.054-1.405-0.071-1.614-0.374v0c-0.118-0.171-0.201-0.443-0.248-0.818-0.057-0.376-0.07-0.737-0.04-1.083 0.033-0.341 0.105-0.549 0.215-0.625v0c0.094-0.065 0.372-0.115 0.836-0.151v0c1.016-0.132 1.982-0.324 2.899-0.576 0.919-0.261 1.904-0.755 2.957-1.482v0c0.826-0.571 1.45-1.235 1.872-1.991 0.424-0.765 0.616-1.558 0.578-2.379-0.042-0.826-0.322-1.614-0.84-2.362v0c-0.552-0.799-1.226-1.314-2.022-1.546-0.795-0.232-1.608-0.288-2.438-0.17-0.825 0.114-1.978 0.342-3.46 0.683v0c-1.597 0.388-2.906 0.625-3.928 0.713-1.018 0.093-2.064-0.083-3.139-0.529-1.065-0.444-2.054-1.328-2.968-2.65v0c-0.796-1.151-1.213-2.39-1.25-3.715-0.037-1.326 0.312-2.622 1.048-3.889 0.74-1.261 1.818-2.381 3.234-3.359v0c0.644-0.446 1.438-0.864 2.381-1.256 0.948-0.395 1.822-0.645 2.62-0.75 0.793-0.101 1.316 0.031 1.567 0.395v0c0.107 0.154 0.192 0.413 0.256 0.775 0.064 0.363 0.085 0.711 0.062 1.044-0.013 0.335-0.069 0.536-0.168 0.605v0c-0.11 0.076-0.391 0.136-0.841 0.179v0c-0.747 0.085-1.449 0.224-2.105 0.417-0.656 0.193-1.367 0.555-2.133 1.084v0c-1.245 0.861-2.03 1.88-2.356 3.058-0.329 1.172-0.096 2.334 0.701 3.486v0c0.48 0.694 1.045 1.146 1.695 1.356 0.654 0.216 1.331 0.276 2.031 0.183 0.71-0.092 1.65-0.286 2.822-0.583v0c0.072-0.025 0.247-0.073 0.524-0.143v0c1.626-0.392 3.012-0.637 4.156-0.737 1.139-0.096 2.299 0.092 3.479 0.562 1.179 0.48 2.236 1.397 3.173 2.752v0c0.88 1.272 1.356 2.584 1.427 3.936 0.062 1.35-0.274 2.653-1.009 3.91-0.739 1.252-1.829 2.377-3.272 3.375z" fill="#000000" data-fill-palette-color="primary"></path><path d="M89.131 38.517c-0.967 0.43-1.567 0.382-1.801-0.145v0l-10.537-23.702c-0.239-0.539 0.124-1.023 1.092-1.452v0l0.284-0.127c0.955-0.424 1.552-0.367 1.791 0.172v0l4.889 10.997 0.138-0.062 3.819-15.198c0.08-0.248 0.282-0.495 0.605-0.741 0.314-0.25 0.688-0.471 1.123-0.664v0l0.34-0.151c0.404-0.18 0.735-0.268 0.992-0.266 0.255-0.003 0.412 0.062 0.472 0.197v0c0.095 0.214 0.089 0.506-0.017 0.876v0l-3.99 15.186 16.121 6.983c0.315 0.131 0.506 0.273 0.574 0.426v0c0.09 0.202 0.033 0.388-0.169 0.559-0.209 0.173-0.604 0.389-1.186 0.648v0l-0.44 0.196c-0.514 0.229-0.933 0.382-1.258 0.46-0.33 0.081-0.632 0.061-0.906-0.059v0l-15.428-6.983-0.137 0.061 4.995 11.236c0.234 0.526-0.126 1.002-1.082 1.426v0z" fill="#000000" data-fill-palette-color="primary"></path><path d="M116.218 29.351c-1.021 0.219-1.593 0.047-1.713-0.516v0l-2.794-13.014-10.587-10.118c-0.262-0.231-0.413-0.439-0.452-0.623v0c-0.097-0.452 0.447-0.805 1.632-1.059v0l0.413-0.089c0.432-0.093 0.789-0.121 1.07-0.086 0.287 0.028 0.525 0.134 0.716 0.319v0l8.344 8.094 4.401-10.85c0.154-0.43 0.693-0.745 1.616-0.943v0l0.256-0.055c0.537-0.081 0.939-0.095 1.203-0.042 0.26 0.061 0.411 0.193 0.455 0.395v0c0.027 0.124-0.032 0.377-0.177 0.758v0l-5.478 13.68 2.77 12.906c0.121 0.563-0.336 0.956-1.37 1.178v0z" fill="#000000" data-fill-palette-color="primary"></path><path d="M153.305 27.944c-3.913-0.377-6.782-1.85-8.607-4.421-1.831-2.578-2.526-6.157-2.085-10.737v0c0.439-4.56 1.794-7.911 4.065-10.054 2.272-2.143 5.374-3.025 9.308-2.647v0c3.946 0.38 6.834 1.838 8.661 4.376 1.828 2.537 2.523 6.086 2.084 10.646v0c-0.441 4.58-1.802 7.961-4.084 10.143-2.282 2.176-5.396 3.074-9.342 2.694zM153.591 24.974c2.76 0.266 4.964-0.474 6.612-2.22 1.648-1.745 2.644-4.408 2.989-7.988v0c0.344-3.58-0.125-6.36-1.408-8.34-1.283-1.98-3.311-3.104-6.084-3.371v0c-2.76-0.266-4.952 0.452-6.575 2.153-1.63 1.7-2.618 4.34-2.963 7.92v0c-0.346 3.6 0.117 6.406 1.39 8.419 1.266 2.019 3.279 3.161 6.039 3.427z" fill="#000000" data-fill-palette-color="primary"></path><path d="M173.058 31.575c-1.002-0.34-1.411-0.782-1.226-1.328v0l8.197-24.185c0.133-0.393 0.318-0.645 0.553-0.756 0.244-0.115 0.56-0.107 0.947 0.024v0l6.26 2.121c2.975 1.008 5.036 2.29 6.185 3.847 1.14 1.56 1.323 3.482 0.55 5.765v0c-0.527 1.554-1.343 2.731-2.448 3.53-1.099 0.801-2.417 1.238-3.956 1.311v0l-0.048 0.143c0.643 0.501 1.075 1.188 1.295 2.062 0.226 0.876 0.385 2.118 0.477 3.725v0l0.422 8.332c-0.016 0.277-0.04 0.464-0.073 0.559v0c-0.133 0.393-0.723 0.413-1.769 0.058v0l-0.371-0.126c-0.381-0.129-0.689-0.294-0.925-0.494-0.238-0.194-0.361-0.395-0.369-0.602v0l-0.349-8.265c-0.039-1.074-0.214-1.957-0.524-2.649-0.308-0.698-0.762-1.266-1.364-1.703-0.595-0.435-1.403-0.826-2.424-1.172v0l-3.349-1.135-3.634 10.723c-0.185 0.545-0.772 0.651-1.762 0.315v0zM179.706 17.812l4.9 1.66c0.882 0.299 1.758 0.362 2.63 0.191 0.878-0.169 1.648-0.534 2.311-1.094 0.664-0.56 1.131-1.24 1.402-2.039v0c0.497-1.465 0.419-2.708-0.232-3.727-0.651-1.02-1.764-1.796-3.337-2.329v0l-4.652-1.577z" fill="#000000" data-fill-palette-color="primary"></path><path d="M196.42 41.039c-0.941-0.485-1.279-0.983-1.015-1.495v0l11.876-23.059c0.27-0.524 0.875-0.544 1.816-0.06v0l0.277 0.143c0.929 0.478 1.258 0.98 0.989 1.504v0l-11.877 23.059c-0.264 0.512-0.86 0.529-1.789 0.05v0z" fill="#000000" data-fill-palette-color="primary"></path><path d="M213.474 53.322c-3.13-2.401-4.82-5.133-5.071-8.195-0.256-3.066 1.02-6.43 3.829-10.091v0c5.776-7.529 12.028-8.714 18.755-3.553v0c0.983 0.754 1.857 1.589 2.623 2.506 0.764 0.907 1.317 1.732 1.659 2.475 0.342 0.743 0.404 1.256 0.188 1.538v0c-0.135 0.175-0.375 0.362-0.721 0.56-0.346 0.198-0.688 0.346-1.024 0.443-0.336 0.097-0.568 0.096-0.695-0.001v0c-0.058-0.045-0.164-0.248-0.317-0.61v0c-0.357-0.789-0.782-1.55-1.275-2.283-0.498-0.737-1.226-1.472-2.182-2.206v0c-2.646-2.03-5.088-2.747-7.327-2.151-2.238 0.596-4.452 2.32-6.64 5.174v0c-2.063 2.689-3.184 5.234-3.365 7.637-0.176 2.397 1.022 4.582 3.594 6.555v0c0.781 0.599 1.567 1.143 2.357 1.631 0.789 0.479 1.446 0.827 1.972 1.044v0l4.831-6.297-3.651-2.8c-0.223-0.171-0.328-0.365-0.313-0.582 0.013-0.226 0.144-0.501 0.393-0.826v0l0.391-0.51c0.253-0.329 0.485-0.527 0.696-0.593 0.21-0.075 0.426-0.028 0.649 0.144v0l5.452 4.182c0.329 0.253 0.514 0.513 0.554 0.78 0.039 0.258-0.068 0.551-0.321 0.88v0l-6.335 8.258c-0.62 0.808-1.715 0.883-3.287 0.225-1.577-0.661-3.384-1.773-5.419-3.334z" fill="#000000" data-fill-palette-color="primary"></path><path d="M227.172 65.783c-0.724-0.771-0.877-1.354-0.457-1.748v0l18.909-17.755c0.43-0.403 1.007-0.219 1.731 0.551v0l0.213 0.227c0.715 0.762 0.858 1.344 0.429 1.748v0l-18.909 17.755c-0.42 0.394-0.987 0.211-1.703-0.551v0z" fill="#000000" data-fill-palette-color="primary"></path><path d="M234.222 75.23c-0.305-0.472-0.466-0.851-0.483-1.135-0.02-0.29 0.094-0.515 0.341-0.675v0l21.783-14.082c0.495-0.32 1.031-0.033 1.61 0.862v0l0.441 0.683c0.225 0.349 0.353 0.657 0.383 0.925 0.03 0.268-0.012 0.554-0.126 0.859v0l-9.095 20.832-1.223 2.178 17.658-11.415c0.495-0.32 1.022-0.047 1.582 0.82v0l0.169 0.261c0.56 0.866 0.592 1.459 0.097 1.779v0l-21.783 14.082c-0.247 0.16-0.498 0.174-0.75 0.042-0.256-0.137-0.528-0.428-0.815-0.872v0l-0.431-0.667c-0.2-0.309-0.321-0.582-0.362-0.819-0.047-0.233-0.024-0.451 0.068-0.653v0l9.388-21.488 1.126-1.996-17.86 11.546c-0.484 0.313-1.009 0.03-1.577-0.848v0z" fill="#000000" data-fill-palette-color="primary"></path><path d="M249.295 104.557c-0.49-1.361-0.797-2.681-0.923-3.959-0.117-1.275-0.091-2.341 0.077-3.199 0.171-0.851 0.429-1.339 0.776-1.464v0c0.195-0.07 0.48-0.08 0.854-0.03 0.378 0.042 0.731 0.121 1.057 0.239 0.321 0.12 0.504 0.242 0.549 0.368v0c0.039 0.107 0.016 0.389-0.069 0.847v0c-0.133 1.016-0.195 1.999-0.188 2.95 0.016 0.955 0.241 2.034 0.674 3.238v0c0.34 0.945 0.821 1.719 1.444 2.321 0.631 0.606 1.348 0.996 2.15 1.169 0.809 0.172 1.642 0.103 2.5-0.205v0c0.914-0.329 1.585-0.848 2.012-1.557 0.428-0.709 0.692-1.48 0.791-2.313 0.101-0.826 0.177-2 0.228-3.52v0c0.035-1.643 0.142-2.969 0.319-3.98 0.171-1.008 0.61-1.974 1.317-2.897 0.703-0.915 1.81-1.644 3.322-2.189v0c1.317-0.474 2.621-0.559 3.912-0.254 1.291 0.304 2.454 0.975 3.489 2.011 1.029 1.039 1.834 2.368 2.418 3.988v0c0.265 0.737 0.466 1.612 0.602 2.623 0.138 1.018 0.156 1.926 0.052 2.725-0.106 0.793-0.367 1.264-0.783 1.414v0c-0.176 0.063-0.448 0.079-0.816 0.048-0.367-0.032-0.709-0.101-1.025-0.208-0.32-0.098-0.501-0.204-0.541-0.318v0c-0.045-0.126-0.031-0.412 0.043-0.859v0c0.11-0.744 0.155-1.458 0.137-2.141-0.018-0.684-0.185-1.464-0.5-2.34v0c-0.512-1.424-1.296-2.445-2.351-3.062-1.048-0.619-2.231-0.692-3.549-0.218v0c-0.794 0.286-1.376 0.716-1.745 1.291-0.376 0.577-0.609 1.216-0.698 1.916-0.093 0.71-0.147 1.669-0.161 2.877v0c0.006 0.076 0.007 0.257 0.003 0.543v0c-0.039 1.672-0.157 3.074-0.355 4.206-0.2 1.125-0.679 2.198-1.436 3.218-0.766 1.016-1.924 1.803-3.475 2.361v0c-1.456 0.524-2.846 0.647-4.169 0.368-1.32-0.287-2.494-0.946-3.52-1.979-1.02-1.035-1.827-2.378-2.422-4.029z" fill="#000000" data-fill-palette-color="primary"></path><path d="M9.487 184.834c-0.347-1-0.248-1.594 0.296-1.782v0l24.128-8.364c0.392-0.136 0.705-0.145 0.937-0.027 0.241 0.122 0.428 0.376 0.562 0.762v0l2.165 6.245c1.029 2.968 1.281 5.382 0.757 7.244-0.533 1.857-1.938 3.181-4.217 3.971v0c-1.55 0.537-2.98 0.615-4.289 0.232-1.307-0.376-2.461-1.149-3.462-2.319v0l-0.142 0.05c-0.001 0.815-0.279 1.578-0.834 2.287-0.553 0.716-1.436 1.603-2.649 2.663v0l-6.321 5.444c-0.229 0.157-0.391 0.252-0.486 0.285v0c-0.392 0.136-0.769-0.318-1.131-1.362v0l-0.129-0.37c-0.132-0.38-0.191-0.724-0.177-1.034 0.007-0.307 0.09-0.527 0.249-0.66v0l6.313-5.346c0.824-0.69 1.414-1.369 1.77-2.039 0.363-0.671 0.532-1.379 0.509-2.121-0.021-0.737-0.209-1.615-0.562-2.634v0l-1.158-3.341-10.698 3.708c-0.544 0.189-0.987-0.211-1.329-1.198v0zM24.435 181.641l1.694 4.888c0.305 0.88 0.792 1.611 1.462 2.194 0.672 0.589 1.433 0.974 2.282 1.155 0.849 0.18 1.673 0.133 2.47-0.144v0c1.462-0.507 2.395-1.33 2.802-2.47 0.406-1.14 0.337-2.495-0.208-4.065v0l-1.609-4.641z" fill="#000000" data-fill-palette-color="primary"></path><path d="M20.668 210.905c-0.207-0.352-0.276-0.661-0.206-0.927 0.067-0.257 0.273-0.487 0.62-0.69v0l21.694-12.733c0.358-0.21 0.663-0.28 0.914-0.21 0.26 0.073 0.493 0.285 0.7 0.638v0l6.941 11.826c0.142 0.243 0.166 0.462 0.071 0.657-0.086 0.198-0.313 0.405-0.683 0.622v0l-0.555 0.326c-0.341 0.2-0.627 0.294-0.859 0.282-0.229-0.006-0.414-0.13-0.556-0.372v0l-5.787-9.859-7.719 4.53 5.192 8.846c0.142 0.243 0.165 0.466 0.067 0.671-0.106 0.202-0.339 0.408-0.697 0.619v0l-0.511 0.3c-0.358 0.21-0.646 0.309-0.862 0.296-0.226-0.015-0.41-0.144-0.553-0.386v0l-5.192-8.846-8.291 4.867 5.807 9.894c0.142 0.243 0.168 0.465 0.076 0.665-0.101 0.199-0.33 0.403-0.688 0.614v0l-0.546 0.32c-0.347 0.203-0.631 0.301-0.854 0.292-0.232-0.011-0.419-0.138-0.561-0.381v0z" fill="#000000" data-fill-palette-color="primary"></path><path d="M35.827 232.55c-0.277-0.3-0.41-0.588-0.398-0.862 0.011-0.265 0.164-0.534 0.459-0.806v0l18.497-17.047c0.305-0.281 0.588-0.414 0.848-0.399 0.27 0.016 0.543 0.174 0.82 0.474v0l5.378 5.836c2.501 2.713 3.697 5.623 3.59 8.727-0.108 3.105-1.922 6.28-5.443 9.525v0c-3.546 3.268-6.868 4.827-9.966 4.677-3.103-0.145-5.905-1.575-8.406-4.289v0zM39.567 232.205l3.655 3.967c1.797 1.95 3.883 2.933 6.257 2.95 2.369 0.021 4.925-1.233 7.668-3.761v0c1.842-1.697 3.092-3.369 3.752-5.016 0.655-1.651 0.802-3.212 0.44-4.681-0.367-1.465-1.129-2.826-2.286-4.082v0l-3.656-3.966z" fill="#000000" data-fill-palette-color="primary"></path><path d="M63.093 257.416c-1.19-0.823-2.207-1.718-3.053-2.685-0.836-0.969-1.435-1.851-1.797-2.648-0.356-0.792-0.43-1.339-0.22-1.642v0c0.118-0.171 0.344-0.344 0.678-0.521 0.332-0.186 0.665-0.326 0.999-0.42 0.33-0.089 0.551-0.096 0.661-0.019v0c0.094 0.065 0.239 0.308 0.436 0.729v0c0.482 0.904 1.003 1.74 1.562 2.509 0.568 0.768 1.379 1.515 2.431 2.243v0c0.826 0.571 1.667 0.921 2.524 1.049 0.865 0.126 1.675 0.027 2.429-0.299 0.758-0.331 1.396-0.871 1.914-1.62v0c0.552-0.799 0.797-1.611 0.733-2.437-0.064-0.826-0.298-1.606-0.702-2.341-0.398-0.731-1.018-1.73-1.86-2.997v0c-0.926-1.357-1.611-2.498-2.054-3.423-0.447-0.92-0.651-1.961-0.613-3.123 0.04-1.153 0.517-2.39 1.431-3.713v0c0.796-1.151 1.808-1.978 3.035-2.481 1.227-0.503 2.563-0.634 4.008-0.392 1.441 0.247 2.869 0.861 4.286 1.84v0c0.644 0.446 1.316 1.04 2.015 1.784 0.704 0.748 1.246 1.477 1.626 2.187 0.374 0.707 0.436 1.242 0.184 1.606v0c-0.107 0.154-0.319 0.325-0.635 0.513-0.317 0.188-0.635 0.33-0.955 0.427-0.318 0.106-0.526 0.125-0.625 0.056v0c-0.11-0.076-0.265-0.318-0.464-0.724v0c-0.343-0.669-0.721-1.276-1.134-1.822-0.412-0.546-1.001-1.083-1.767-1.613v0c-1.245-0.861-2.476-1.236-3.693-1.125-1.213 0.106-2.218 0.734-3.014 1.886v0c-0.48 0.694-0.703 1.382-0.67 2.064 0.029 0.688 0.211 1.343 0.546 1.966 0.337 0.632 0.85 1.443 1.541 2.434v0c0.049 0.058 0.155 0.205 0.319 0.44v0c0.941 1.383 1.659 2.593 2.156 3.628 0.491 1.032 0.725 2.183 0.702 3.454-0.033 1.272-0.518 2.586-1.454 3.94v0c-0.88 1.272-1.939 2.18-3.179 2.725-1.241 0.534-2.579 0.68-4.014 0.436-1.432-0.249-2.869-0.873-4.313-1.871z" fill="#000000" data-fill-palette-color="primary"></path><path d="M80.668 267.343c-0.967-0.43-1.333-0.908-1.099-1.434v0l10.536-23.702c0.239-0.539 0.843-0.593 1.81-0.163v0l0.284 0.127c0.955 0.424 1.312 0.906 1.073 1.444v0l-4.888 10.997 0.137 0.062 13.842-7.347c0.238-0.107 0.557-0.123 0.956-0.048 0.396 0.066 0.811 0.196 1.245 0.389v0l0.34 0.151c0.404 0.18 0.691 0.366 0.862 0.559 0.173 0.187 0.23 0.348 0.17 0.482v0c-0.095 0.214-0.316 0.406-0.662 0.574v0l-13.947 7.213 5.617 16.645c0.114 0.322 0.136 0.559 0.068 0.712v0c-0.09 0.202-0.266 0.285-0.528 0.249-0.269-0.039-0.694-0.187-1.275-0.446v0l-0.441-0.196c-0.514-0.229-0.909-0.437-1.184-0.625-0.281-0.191-0.469-0.428-0.563-0.712v0l-5.153-16.132-0.137-0.061-4.995 11.236c-0.234 0.526-0.828 0.577-1.783 0.153v0z" fill="#000000" data-fill-palette-color="primary"></path><path d="M111.846 277.841c-1.021-0.219-1.472-0.61-1.351-1.173v0l2.794-13.014-5.502-13.572c-0.144-0.319-0.196-0.57-0.157-0.753v0c0.097-0.452 0.738-0.551 1.923-0.296v0l0.413 0.088c0.432 0.093 0.769 0.213 1.012 0.361 0.25 0.143 0.424 0.338 0.521 0.585v0l4.288 10.804 8.466-8.087c0.317-0.329 0.938-0.395 1.86-0.197v0l0.256 0.055c0.523 0.147 0.895 0.298 1.114 0.455 0.212 0.162 0.296 0.344 0.253 0.547v0c-0.027 0.124-0.184 0.33-0.472 0.618v0l-10.61 10.227-2.77 12.906c-0.121 0.563-0.699 0.734-1.734 0.512v0z" fill="#000000" data-fill-palette-color="primary"></path><path d="M155.329 279.917c-3.913 0.377-7.011-0.523-9.292-2.699-2.289-2.182-3.654-5.562-4.094-10.142v0c-0.439-4.56 0.253-8.108 2.074-10.645 1.821-2.537 4.699-3.994 8.632-4.373v0c3.946-0.38 7.059 0.502 9.337 2.644 2.278 2.142 3.637 5.493 4.076 10.053v0c0.441 4.58-0.251 8.158-2.076 10.736-1.825 2.571-4.711 4.046-8.657 4.426zM155.043 276.947c2.76-0.266 4.782-1.412 6.068-3.44 1.285-2.028 1.755-4.831 1.411-8.411v0c-0.344-3.58-1.335-6.219-2.972-7.919-1.637-1.699-3.842-2.416-6.616-2.149v0c-2.76 0.266-4.775 1.388-6.044 3.367-1.276 1.98-1.742 4.76-1.398 8.339v0c0.346 3.6 1.336 6.266 2.97 8 1.627 1.741 3.821 2.478 6.581 2.213z" fill="#000000" data-fill-palette-color="primary"></path><path d="M179.745 274.979c-1.002 0.34-1.596 0.237-1.78-0.309v0l-8.197-24.185c-0.133-0.393-0.14-0.706-0.021-0.937 0.124-0.24 0.379-0.425 0.766-0.556v0l6.261-2.122c2.975-1.008 5.391-1.244 7.249-0.707 1.854 0.546 3.168 1.96 3.941 4.244v0c0.527 1.554 0.594 2.984 0.203 4.291-0.385 1.304-1.166 2.453-2.343 3.445v0l0.048 0.143c0.815 0.006 1.576 0.29 2.282 0.85 0.712 0.558 1.594 1.447 2.644 2.668v0l5.401 6.358c0.156 0.23 0.25 0.393 0.282 0.488v0c0.133 0.393-0.323 0.767-1.37 1.122v0l-0.371 0.125c-0.381 0.129-0.725 0.186-1.035 0.171-0.307-0.009-0.527-0.094-0.659-0.254v0l-5.302-6.35c-0.684-0.829-1.359-1.424-2.026-1.784-0.669-0.367-1.375-0.542-2.119-0.523-0.737 0.016-1.616 0.198-2.637 0.543v0l-3.349 1.135 3.634 10.723c0.185 0.545-0.217 0.986-1.207 1.321v0zM176.655 260.01l4.9-1.661c0.882-0.299 1.616-0.781 2.204-1.447 0.594-0.668 0.984-1.426 1.17-2.274 0.186-0.848 0.144-1.672-0.126-2.471v0c-0.497-1.465-1.313-2.405-2.451-2.818-1.137-0.414-2.492-0.354-4.066 0.179v0l-4.652 1.577z" fill="#000000" data-fill-palette-color="primary"></path><path d="M205.959 264.306c-0.941 0.485-1.543 0.471-1.806-0.042v0l-11.877-23.059c-0.27-0.524 0.066-1.028 1.006-1.513v0l0.277-0.142c0.929-0.478 1.528-0.456 1.798 0.068v0l11.877 23.059c0.264 0.512-0.069 1.007-0.998 1.486v0z" fill="#000000" data-fill-palette-color="primary"></path><path d="M226.338 250.27c-3.13 2.401-6.206 3.326-9.229 2.775-3.028-0.547-5.946-2.651-8.755-6.313v0c-5.776-7.529-5.301-13.875 1.427-19.035v0c0.983-0.754 2.016-1.382 3.099-1.884 1.074-0.503 2.014-0.824 2.821-0.961 0.806-0.137 1.317-0.065 1.533 0.216v0c0.135 0.175 0.253 0.456 0.355 0.842 0.102 0.386 0.156 0.754 0.163 1.104 0.006 0.35-0.054 0.573-0.182 0.671v0c-0.058 0.045-0.282 0.094-0.671 0.148v0c-0.854 0.141-1.699 0.354-2.535 0.64-0.841 0.29-1.739 0.803-2.696 1.536v0c-2.646 2.03-3.971 4.203-3.975 6.52-0.004 2.316 1.088 4.901 3.277 7.754v0c2.063 2.689 4.231 4.431 6.504 5.227 2.27 0.791 4.69 0.2 7.263-1.772v0c0.781-0.599 1.51-1.217 2.186-1.855 0.667-0.638 1.173-1.183 1.519-1.634v0l-4.831-6.296-3.65 2.8c-0.223 0.171-0.438 0.222-0.643 0.152-0.215-0.071-0.447-0.269-0.696-0.593v0l-0.391-0.511c-0.253-0.329-0.384-0.605-0.393-0.825-0.018-0.222 0.084-0.419 0.307-0.59v0l5.452-4.182c0.329-0.253 0.628-0.364 0.896-0.334 0.259 0.029 0.515 0.209 0.768 0.538v0l6.334 8.258c0.62 0.808 0.408 1.886-0.633 3.234-1.048 1.352-2.589 2.809-4.624 4.37z" fill="#000000" data-fill-palette-color="primary"></path><path d="M242.359 235.301c-0.724 0.771-1.296 0.96-1.716 0.566v0l-18.909-17.755c-0.43-0.403-0.282-0.991 0.442-1.762v0l0.213-0.228c0.715-0.762 1.288-0.941 1.717-0.537v0l18.909 17.755c0.42 0.394 0.272 0.972-0.443 1.734v0z" fill="#000000" data-fill-palette-color="primary"></path><path d="M251.717 222.903c-0.305 0.472-0.584 0.775-0.837 0.907-0.256 0.137-0.508 0.126-0.756-0.034v0l-21.783-14.082c-0.495-0.32-0.453-0.927 0.125-1.821v0l0.442-0.683c0.225-0.349 0.454-0.592 0.686-0.729 0.232-0.137 0.511-0.216 0.836-0.237v0l22.728-0.26 2.489 0.221-17.658-11.415c-0.495-0.32-0.462-0.913 0.097-1.779v0l0.169-0.262c0.56-0.866 1.087-1.139 1.583-0.819v0l21.783 14.082c0.247 0.16 0.363 0.382 0.346 0.666-0.02 0.29-0.174 0.657-0.461 1.102v0l-0.43 0.666c-0.2 0.309-0.399 0.531-0.598 0.666-0.193 0.138-0.401 0.207-0.624 0.207v0l-23.448 0.262-2.282-0.208 17.86 11.546c0.484 0.313 0.442 0.908-0.125 1.785v0z" fill="#000000" data-fill-palette-color="primary"></path><path d="M269.181 189.422c-0.49 1.361-1.094 2.574-1.812 3.64-0.722 1.057-1.421 1.862-2.097 2.416-0.674 0.548-1.184 0.759-1.531 0.635v0c-0.195-0.07-0.421-0.244-0.677-0.522-0.265-0.273-0.486-0.559-0.663-0.857-0.171-0.296-0.234-0.508-0.188-0.634v0c0.039-0.107 0.236-0.31 0.593-0.609v0c0.75-0.698 1.424-1.416 2.024-2.154 0.596-0.746 1.111-1.721 1.544-2.925v0c0.34-0.945 0.462-1.848 0.366-2.708-0.1-0.869-0.404-1.626-0.913-2.272-0.514-0.648-1.2-1.126-2.057-1.434v0c-0.914-0.329-1.762-0.356-2.543-0.082-0.782 0.274-1.476 0.7-2.083 1.279-0.605 0.573-1.411 1.428-2.419 2.567v0c-1.074 1.244-2.001 2.198-2.781 2.864-0.774 0.668-1.728 1.133-2.861 1.394-1.125 0.257-2.443 0.114-3.956-0.43v0c-1.317-0.474-2.376-1.239-3.177-2.297-0.801-1.057-1.27-2.315-1.407-3.773-0.131-1.456 0.095-2.994 0.678-4.614v0c0.265-0.737 0.668-1.539 1.207-2.405 0.542-0.873 1.107-1.584 1.696-2.134 0.587-0.543 1.088-0.74 1.505-0.59v0c0.176 0.063 0.396 0.224 0.659 0.483 0.263 0.258 0.482 0.529 0.657 0.813 0.184 0.28 0.256 0.476 0.215 0.59v0c-0.045 0.126-0.239 0.338-0.58 0.634v0c-0.558 0.504-1.049 1.025-1.471 1.564-0.422 0.539-0.79 1.246-1.105 2.122v0c-0.512 1.424-0.559 2.71-0.139 3.857 0.414 1.145 1.279 1.955 2.596 2.429v0c0.794 0.286 1.517 0.325 2.168 0.118 0.657-0.205 1.244-0.549 1.759-1.032 0.524-0.488 1.176-1.192 1.957-2.115v0c0.044-0.063 0.158-0.203 0.343-0.421v0c1.095-1.264 2.08-2.269 2.954-3.015 0.871-0.74 1.924-1.262 3.157-1.565 1.238-0.295 2.632-0.163 4.182 0.394v0c1.456 0.524 2.605 1.315 3.449 2.373 0.835 1.062 1.319 2.318 1.452 3.768 0.127 1.448-0.107 2.997-0.701 4.648z" fill="#000000" data-fill-palette-color="primary"></path><path d="M2.814 143.412c0-5.858 4.749-10.607 10.607-10.607 5.858 0 10.607 4.749 10.607 10.607 0 5.858-4.749 10.607-10.607 10.607-5.858 0-10.607-4.749-10.607-10.607z" fill="#000000" data-fill-palette-color="primary"></path><path d="M255.972 143.412c0-5.858 4.749-10.607 10.607-10.607 5.858 0 10.607 4.749 10.607 10.607 0 5.858-4.749 10.607-10.607 10.607-5.858 0-10.607-4.749-10.607-10.607z" fill="#000000" data-fill-palette-color="primary"></path></g></svg></g></svg></g></svg></g></svg></g><defs></defs></svg><rect width="280" height="280" fill="none" stroke="none" visibility="hidden"></rect></g></svg></g></svg>